<svg xmlns="http://www.w3.org/2000/svg" width="56" height="16" viewBox="0 0 56 16">
    <g fill="none" fill-rule="evenodd">
        <path fill="#8A2023" d="M6.92 11.05H4.806c-1.725 0-2.559-.975-2.559-3.02 0-1.932.911-2.887 2.714-2.887h1.957v5.907zm0-7.609H4.631c-1.298 0-2.287.268-2.984.803C.6 5.047 0 6.48 0 8.163c0 1.51.465 2.772 1.299 3.556.813.764 1.705 1.032 3.508 1.032H9.11V0H6.92v3.441zM20.5 3.441h-1.725v1.702H20.5v4.492c0 1.338.193 1.988.717 2.504.504.46 1.046.612 2.229.612h1.86V11.05h-1.065c-1.319 0-1.551-.249-1.551-1.702V5.143h2.616V3.44H22.69V0H20.5v3.441"/>
        <path fill="#1A1919" d="M28.067 5.14h1.802c1.842 0 2.714.917 2.714 2.848 0 1.09-.252 1.95-.717 2.428-.388.42-1.105.63-2.094.63h-1.705V5.14zm-2.19-1.702v12.525h2.19v-3.215h2.016c1.802 0 2.636-.248 3.43-.994.833-.803 1.338-2.14 1.338-3.613 0-1.625-.466-2.906-1.377-3.728-.833-.745-1.608-.975-3.43-.975h-4.168zM42.1 8.775v2.275h-3.082c-1.182 0-1.647-.306-1.647-1.11 0-.515.233-.898.62-1.05.233-.096.446-.115 1.027-.115H42.1zm-3.275-1.702c-1.086 0-1.783.096-2.23.306-.91.402-1.472 1.396-1.472 2.58 0 .938.368 1.74 1.027 2.238.62.458 1.143.554 3.062.554h5.078V7.15c0-1.472-.174-2.141-.717-2.772-.62-.727-1.337-.937-3.314-.937h-4.633v1.702h4.42c1.085 0 1.492.133 1.783.535.233.325.271.592.271 1.395h-3.275zM51.07 11.05h-2.267c-1.357 0-1.744-.498-1.744-2.294V3.44h-2.19v5.162c0 1.835.116 2.39.659 3.058.659.784 1.512 1.09 3.062 1.09h2.48c-.038.768-.096.978-.387 1.17-.252.21-.542.248-1.492.248h-4.322v1.701h4.38c1.725 0 2.48-.21 3.101-.822.62-.63.911-1.682.911-3.215V3.441h-2.19v7.609"/>
        <path fill="#8A2023" d="M15.186 6.074h-1.66a.176.176 0 0 0-.127.057.233.233 0 0 0-.064.162v1.385h2.042V6.293a.232.232 0 0 0-.063-.162.175.175 0 0 0-.128-.057"/>
        <path fill="#8A2023" d="M16.466 10.261c0 .352-.292.64-.648.64h-2.993a.645.645 0 0 1-.648-.64V8.344a.64.64 0 0 1 .395-.588V6.32c.001-.5.394-.93.916-.933h1.659a.926.926 0 0 1 .915.933v1.434a.64.64 0 0 1 .404.591v1.917zm-2.105-6.757c-2.583 0-4.677 2.065-4.677 4.613 0 2.547 2.094 4.613 4.677 4.613 2.582 0 4.676-2.066 4.676-4.613 0-2.548-2.094-4.613-4.676-4.613z"/>
        <path fill="#1A1919" d="M54.408 1.27h.145c.17 0 .307-.055.307-.19 0-.12-.09-.2-.283-.2a.746.746 0 0 0-.17.017v.373zm-.008.732h-.307V.706a2.6 2.6 0 0 1 .509-.048c.25 0 .362.04.46.103.072.056.128.16.128.279 0 .15-.113.262-.274.31v.016c.129.04.202.143.242.318.04.199.064.278.097.318h-.331c-.04-.048-.064-.159-.105-.31-.024-.143-.105-.207-.274-.207H54.4v.517zm.202-1.718c-.581 0-1.017.47-1.017 1.042 0 .58.436 1.042 1.033 1.042.58.008 1.008-.461 1.008-1.042 0-.573-.428-1.042-1.016-1.042h-.008zm.016-.262c.758 0 1.346.58 1.346 1.304 0 .74-.588 1.312-1.354 1.312-.758 0-1.363-.572-1.363-1.312 0-.724.605-1.304 1.363-1.304h.008z"/>
    </g>
</svg>
