<svg xmlns="http://www.w3.org/2000/svg" width="96" height="19" viewBox="0 0 96 19">
    <g fill="none" fill-rule="evenodd">
        <path fill="#00CE86" d="M59 2h5.337c.985 0 1.839.18 2.56.538.721.36 1.31.85 1.767 1.472.457.621.796 1.349 1.019 2.182.222.834.333 1.725.333 2.673 0 .95-.111 1.84-.333 2.673-.223.834-.562 1.561-1.019 2.183a4.816 4.816 0 0 1-1.767 1.471c-.721.36-1.575.539-2.56.539H59V2zm2.254 11.77h2.217c.878 0 1.596-.126 2.155-.376.559-.25.998-.596 1.316-1.038.319-.443.535-.962.65-1.558.113-.596.17-1.24.17-1.933 0-.692-.057-1.336-.17-1.932a3.874 3.874 0 0 0-.65-1.558c-.318-.442-.757-.788-1.316-1.038s-1.277-.375-2.155-.375h-2.217v9.807zM76.03 16c-.746 0-1.41-.131-1.993-.394a4.254 4.254 0 0 1-1.478-1.087 4.72 4.72 0 0 1-.92-1.654 6.753 6.753 0 0 1-.315-2.115c0-.756.105-1.455.315-2.096A4.72 4.72 0 0 1 72.56 7a4.254 4.254 0 0 1 1.478-1.087c.583-.262 1.247-.394 1.993-.394.745 0 1.409.132 1.992.394A4.254 4.254 0 0 1 79.5 7a4.72 4.72 0 0 1 .92 1.654c.21.64.315 1.34.315 2.096 0 .77-.105 1.474-.315 2.115a4.72 4.72 0 0 1-.92 1.654 4.254 4.254 0 0 1-1.478 1.087c-.583.263-1.247.394-1.992.394zm0-1.73c.456 0 .853-.103 1.19-.308.336-.206.613-.475.829-.808.216-.333.376-.708.478-1.125a5.35 5.35 0 0 0 0-2.548 3.514 3.514 0 0 0-.478-1.125 2.613 2.613 0 0 0-.83-.798c-.336-.205-.733-.308-1.19-.308-.456 0-.853.103-1.19.308a2.613 2.613 0 0 0-.829.798 3.514 3.514 0 0 0-.478 1.125 5.39 5.39 0 0 0 0 2.548c.103.417.262.792.478 1.125.217.333.493.602.83.808.336.205.733.307 1.19.307zm6.447-8.482h1.947v1.385h.054c.156-.244.324-.468.505-.673.18-.205.381-.378.604-.52.222-.14.478-.252.766-.336a3.58 3.58 0 0 1 .992-.125c.565 0 1.09.135 1.577.404.487.27.833.686 1.037 1.25a4.271 4.271 0 0 1 1.208-1.211c.457-.295 1.028-.443 1.713-.443.985 0 1.752.257 2.299.77.547.512.82 1.371.82 2.576v6.866h-2.055V9.923c0-.397-.012-.76-.036-1.086a2.336 2.336 0 0 0-.208-.847 1.222 1.222 0 0 0-.514-.548c-.228-.128-.54-.192-.937-.192-.697 0-1.202.23-1.515.692-.312.462-.468 1.116-.468 1.962v5.827H88.21V9.346c0-.692-.117-1.215-.351-1.567-.235-.353-.665-.529-1.29-.529-.264 0-.52.058-.766.173a1.92 1.92 0 0 0-.649.5 2.541 2.541 0 0 0-.45.808c-.115.32-.172.686-.172 1.096v5.904h-2.055V5.788z"/>
        <path fill="#00CE86" fill-rule="nonzero" d="M8.362 7.982l-2.768 10.4a.784.784 0 0 1-.555.555.75.75 0 0 1-.926-.541L1.533 8.044c-1.677-1.82-1.61-4.691.18-6.494C3.55-.297 6.5-.324 8.302 1.49c1.758 1.77 1.772 4.64.061 6.492zm-3.49 8.288l2.372-8.91.12-.12C8.71 5.883 8.73 3.705 7.41 2.375c-1.32-1.328-3.476-1.309-4.82.044-1.345 1.354-1.365 3.533-.044 4.863l.118.119 2.21 8.868z"/>
        <path fill="#041E15" d="M23 2h1.268v7.53L32.005 2h1.715l-5.947 5.784L34 16h-1.64l-5.538-7.294-2.554 2.49V16H23zM36 2h1v2h-1zM36 6h1v10h-1zM40 6h1.201l2.367 8.566h.036L45.864 6h1.273l2.259 8.566h.036L51.799 6H53l-2.977 10h-1.237L46.51 7.59h-.036L44.213 16h-1.236zM55 2h1v2h-1zM55 6h1v10h-1z"/>
    </g>
</svg>
