<?xml version="1.0" encoding="iso-8859-1"?>
<!-- Generator: Adobe Illustrator 19.0.0, SVG Export Plug-In . SVG Version: 6.00 Build 0)  -->
<svg version="1.1" id="Capa_1" xmlns="http://www.w3.org/2000/svg" xmlns:xlink="http://www.w3.org/1999/xlink" x="0px" y="0px"
	 viewBox="0 0 508 508" style="enable-background:new 0 0 508 508;" xml:space="preserve">
<g>
	<path style="fill:#F2F2F2;" d="M116.4,254c0-15,2.5-29.4,6.9-42.9L36,123.7C13.1,161.8,0,206.4,0,254s13.1,92.2,36,130.3l87.3-87.3
		C118.8,283.4,116.4,269,116.4,254z"/>
	<path style="fill:#F2F2F2;" d="M254,116.4c15,0,29.4,2.5,42.9,6.9L384.3,36C346.2,13.1,301.6,0,254,0s-92.2,13.1-130.3,36
		l87.3,87.3C224.6,118.8,239,116.4,254,116.4z"/>
	<path style="fill:#F2F2F2;" d="M391.6,254c0,15-2.5,29.4-6.9,42.9l87.3,87.3c22.8-38.1,36-82.6,36-130.3s-13.1-92.2-36-130.3
		l-87.3,87.3C389.2,224.6,391.6,239,391.6,254z"/>
	<path style="fill:#F2F2F2;" d="M254,391.6c-15,0-29.4-2.5-42.9-6.9L123.7,472c38.1,22.8,82.6,36,130.3,36s92.2-13.1,130.3-36
		L297,384.7C283.4,389.2,269,391.6,254,391.6z"/>
</g>
<g>
	<path style="fill:#CDD6E0;stroke:#FDD41C;stroke-width:1.000000e-004;stroke-miterlimit:10;" d="M311.2,128.9c0.7,0.3,1.4,0.7,2,1
		C312.6,129.6,311.9,129.3,311.2,128.9z"/>
	<path style="fill:#CDD6E0;stroke:#FDD41C;stroke-width:1.000000e-004;stroke-miterlimit:10;" d="M378.1,194.7c0.3,0.7,0.7,1.3,1,2
		C378.7,196.1,378.4,195.4,378.1,194.7z"/>
	<path style="fill:#CDD6E0;stroke:#FDD41C;stroke-width:1.000000e-004;stroke-miterlimit:10;" d="M129.9,313.3c-0.3-0.7-0.7-1.3-1-2
		C129.3,311.9,129.6,312.6,129.9,313.3z"/>
	<path style="fill:#CDD6E0;stroke:#FDD41C;stroke-width:1.000000e-004;stroke-miterlimit:10;" d="M338.8,145.7
		c0.2,0.2,0.5,0.3,0.7,0.5C339.3,146.1,339,145.9,338.8,145.7z"/>
	<path style="fill:#CDD6E0;stroke:#FDD41C;stroke-width:1.000000e-004;stroke-miterlimit:10;" d="M370.5,180.9
		c0.4,0.7,0.8,1.4,1.2,2.1C371.3,182.3,370.9,181.6,370.5,180.9z"/>
	<path style="fill:#CDD6E0;stroke:#FDD41C;stroke-width:1.000000e-004;stroke-miterlimit:10;" d="M361.7,168.5
		c0.2,0.2,0.4,0.5,0.5,0.7C362.1,169,361.9,168.7,361.7,168.5z"/>
	<path style="fill:#CDD6E0;stroke:#FDD41C;stroke-width:1.000000e-004;stroke-miterlimit:10;" d="M325,136.3
		c0.7,0.4,1.4,0.8,2.1,1.3C326.4,137.1,325.7,136.7,325,136.3z"/>
	<path style="fill:#CDD6E0;stroke:#FDD41C;stroke-width:1.000000e-004;stroke-miterlimit:10;" d="M371.7,325
		c-0.4,0.7-0.8,1.4-1.2,2.1C370.9,326.4,371.3,325.7,371.7,325z"/>
	<path style="fill:#CDD6E0;stroke:#FDD41C;stroke-width:1.000000e-004;stroke-miterlimit:10;" d="M339.5,361.7
		c-0.2,0.2-0.5,0.4-0.7,0.5C339,362.1,339.3,361.9,339.5,361.7z"/>
	<path style="fill:#CDD6E0;stroke:#FDD41C;stroke-width:1.000000e-004;stroke-miterlimit:10;" d="M128.9,196.8c0.3-0.7,0.7-1.3,1-2
		C129.6,195.4,129.3,196.1,128.9,196.8z"/>
	<path style="fill:#CDD6E0;stroke:#FDD41C;stroke-width:1.000000e-004;stroke-miterlimit:10;" d="M136.3,183
		c0.4-0.7,0.8-1.4,1.2-2.1C137.1,181.6,136.7,182.3,136.3,183z"/>
	<path style="fill:#CDD6E0;stroke:#FDD41C;stroke-width:1.000000e-004;stroke-miterlimit:10;" d="M137.5,327.1
		c-0.4-0.7-0.8-1.4-1.2-2.1C136.7,325.7,137.1,326.4,137.5,327.1z"/>
	<path style="fill:#CDD6E0;stroke:#FDD41C;stroke-width:1.000000e-004;stroke-miterlimit:10;" d="M180.9,137.5
		c0.7-0.4,1.4-0.8,2.1-1.3C182.3,136.7,181.6,137.1,180.9,137.5z"/>
	<path style="fill:#CDD6E0;stroke:#FDD41C;stroke-width:1.000000e-004;stroke-miterlimit:10;" d="M168.5,146.3
		c0.2-0.2,0.5-0.4,0.7-0.5C169,145.9,168.7,146.1,168.5,146.3z"/>
	<path style="fill:#CDD6E0;stroke:#FDD41C;stroke-width:1.000000e-004;stroke-miterlimit:10;" d="M145.7,169.2
		c0.2-0.2,0.4-0.5,0.5-0.7C146.1,168.7,145.9,169,145.7,169.2z"/>
	<path style="fill:#CDD6E0;stroke:#FDD41C;stroke-width:1.000000e-004;stroke-miterlimit:10;" d="M362.3,338.8
		c-0.2,0.2-0.4,0.5-0.5,0.7C361.9,339.3,362.1,339,362.3,338.8z"/>
	<path style="fill:#CDD6E0;stroke:#FDD41C;stroke-width:1.000000e-004;stroke-miterlimit:10;" d="M194.7,129.9c0.7-0.3,1.3-0.7,2-1
		C196.1,129.3,195.4,129.6,194.7,129.9z"/>
	<path style="fill:#CDD6E0;stroke:#FDD41C;stroke-width:1.000000e-004;stroke-miterlimit:10;" d="M183,371.7
		c-0.7-0.4-1.4-0.8-2.1-1.3C181.6,370.9,182.3,371.3,183,371.7z"/>
	<path style="fill:#CDD6E0;stroke:#FDD41C;stroke-width:1.000000e-004;stroke-miterlimit:10;" d="M379.1,311.2c-0.3,0.7-0.7,1.3-1,2
		C378.4,312.6,378.7,311.9,379.1,311.2z"/>
	<path style="fill:#CDD6E0;stroke:#FDD41C;stroke-width:1.000000e-004;stroke-miterlimit:10;" d="M313.3,378.1c-0.7,0.3-1.3,0.7-2,1
		C311.9,378.7,312.6,378.4,313.3,378.1z"/>
	<path style="fill:#CDD6E0;stroke:#FDD41C;stroke-width:1.000000e-004;stroke-miterlimit:10;" d="M196.8,379.1c-0.7-0.3-1.4-0.7-2-1
		C195.4,378.4,196.1,378.7,196.8,379.1z"/>
	<path style="fill:#CDD6E0;stroke:#FDD41C;stroke-width:1.000000e-004;stroke-miterlimit:10;" d="M123.3,211.1L79,166.7
		C65.8,193,58.2,222.6,58.2,254s7.6,61,20.8,87.3l44.3-44.3l0,0c-4.4-13.5-6.9-27.9-6.9-42.9C116.4,239,118.8,224.6,123.3,211.1
		L123.3,211.1z"/>
	<path style="fill:#CDD6E0;stroke:#FDD41C;stroke-width:1.000000e-004;stroke-miterlimit:10;" d="M166.7,79l44.3,44.3l0,0
		c13.5-4.4,27.9-6.9,42.9-6.9s29.4,2.5,42.9,6.9l0,0L341.3,79C315,65.8,285.4,58.2,254,58.2S193,65.8,166.7,79z"/>
	<path style="fill:#CDD6E0;stroke:#FDD41C;stroke-width:1.000000e-004;stroke-miterlimit:10;" d="M296.9,384.7
		c-13.5,4.4-27.9,6.9-42.9,6.9s-29.4-2.5-42.9-6.9l0,0L166.7,429c26.3,13.2,55.9,20.8,87.3,20.8s61-7.6,87.3-20.8L296.9,384.7
		L296.9,384.7z"/>
	<path style="fill:#CDD6E0;stroke:#FDD41C;stroke-width:1.000000e-004;stroke-miterlimit:10;" d="M429,166.7L384.7,211l0,0
		c4.4,13.5,6.9,27.9,6.9,42.9s-2.5,29.4-6.9,42.9l0,0l44.3,44.3c13.2-26.3,20.8-55.9,20.8-87.3C449.8,222.6,442.2,193,429,166.7z"/>
	<path style="fill:#CDD6E0;stroke:#FDD41C;stroke-width:1.000000e-004;stroke-miterlimit:10;" d="M146.3,339.5
		c-0.2-0.2-0.4-0.5-0.5-0.7C145.9,339,146.1,339.3,146.3,339.5z"/>
	<path style="fill:#CDD6E0;stroke:#FDD41C;stroke-width:1.000000e-004;stroke-miterlimit:10;" d="M327.1,370.5
		c-0.7,0.4-1.4,0.8-2.1,1.3C325.7,371.3,326.4,370.9,327.1,370.5z"/>
	<path style="fill:#CDD6E0;stroke:#FDD41C;stroke-width:1.000000e-004;stroke-miterlimit:10;" d="M169.2,362.3
		c-0.2-0.2-0.5-0.3-0.7-0.5C168.7,361.9,169,362.1,169.2,362.3z"/>
</g>
<g>
	<path style="fill:#FF7058;" d="M313.3,129.9c4,1.9,8,4,11.8,6.3C321.2,134,317.3,131.9,313.3,129.9z"/>
	<path style="fill:#FF7058;" d="M371.7,183c2.3,3.8,4.4,7.7,6.4,11.8C376.1,190.7,374,186.8,371.7,183z"/>
	<path style="fill:#FF7058;" d="M362.3,169.2c2.9,3.7,5.7,7.7,8.2,11.7C367.9,176.9,365.2,173,362.3,169.2z"/>
	<path style="fill:#FF7058;" d="M361.7,168.5c-6.5-8.2-14-15.7-22.2-22.2C347.7,152.8,355.2,160.3,361.7,168.5z"/>
	<path style="fill:#FF7058;" d="M296.9,123.3c4.9,1.6,9.7,3.5,14.3,5.7C306.6,126.8,301.8,124.9,296.9,123.3z"/>
	<path style="fill:#FF7058;" d="M379.1,196.8c2.1,4.6,4,9.4,5.7,14.3C383.1,206.2,381.2,201.4,379.1,196.8z"/>
	<path style="fill:#FF7058;" d="M429,166.7l43-43c-21.6-36-51.8-66.2-87.8-87.8l-43,43C379.2,97.9,410.1,128.8,429,166.7z"/>
	<path style="fill:#FF7058;" d="M327.1,137.5c4,2.5,8,5.3,11.7,8.2C335,142.8,331.1,140.1,327.1,137.5z"/>
</g>
<path style="fill:#F1543F;" d="M296.9,123.3c4.9,1.6,9.7,3.5,14.3,5.7c0.7,0.3,1.4,0.7,2,1c4,1.9,8,4,11.8,6.3
	c0.7,0.4,1.4,0.8,2.1,1.3c4,2.5,8,5.3,11.7,8.2c0.2,0.2,0.5,0.3,0.7,0.5c8.2,6.5,15.7,14,22.2,22.2c0.2,0.2,0.4,0.5,0.5,0.7
	c2.9,3.7,5.7,7.7,8.2,11.7c0.4,0.7,0.8,1.4,1.2,2.1c2.3,3.8,4.4,7.7,6.4,11.8c0.3,0.7,0.7,1.3,1,2c2.1,4.6,4,9.4,5.7,14.3l0,0
	l44.3-44.3C410,128.9,379.2,98,341.2,79L296.9,123.3L296.9,123.3z"/>
<g>
	<path style="fill:#FF7058;" d="M211.1,384.7c-4.9-1.6-9.7-3.5-14.3-5.7C201.4,381.2,206.2,383.1,211.1,384.7z"/>
	<path style="fill:#FF7058;" d="M136.3,325c-2.3-3.8-4.4-7.7-6.4-11.8C131.9,317.3,134,321.2,136.3,325z"/>
	<path style="fill:#FF7058;" d="M194.7,378.1c-4-1.9-8-4-11.8-6.3C186.8,374,190.7,376.1,194.7,378.1z"/>
	<path style="fill:#FF7058;" d="M145.7,338.8c-2.9-3.7-5.7-7.7-8.2-11.7C140.1,331.1,142.8,335,145.7,338.8z"/>
	<path style="fill:#FF7058;" d="M180.9,370.5c-4-2.5-8-5.3-11.7-8.2C173,365.2,176.9,367.9,180.9,370.5z"/>
	<path style="fill:#FF7058;" d="M146.3,339.5c6.5,8.2,14,15.7,22.2,22.2C160.3,355.2,152.8,347.7,146.3,339.5z"/>
	<path style="fill:#FF7058;" d="M128.9,311.2c-2.1-4.6-4-9.4-5.7-14.3C124.9,301.8,126.8,306.6,128.9,311.2z"/>
	<path style="fill:#FF7058;" d="M79,341.3l-43,43c21.6,36,51.8,66.2,87.8,87.8l43-43C128.8,410.1,97.9,379.2,79,341.3z"/>
</g>
<path style="fill:#F1543F;" d="M211.1,384.7c-4.9-1.6-9.7-3.5-14.3-5.7c-0.7-0.3-1.4-0.7-2-1c-4-1.9-8-4-11.8-6.3
	c-0.7-0.4-1.4-0.8-2.1-1.3c-4-2.5-8-5.3-11.7-8.2c-0.2-0.2-0.5-0.3-0.7-0.5c-8.2-6.5-15.7-14-22.2-22.2c-0.2-0.2-0.4-0.5-0.5-0.7
	c-2.9-3.7-5.7-7.7-8.2-11.7c-0.4-0.7-0.8-1.4-1.2-2.1c-2.3-3.8-4.4-7.7-6.4-11.8c-0.3-0.7-0.7-1.3-1-2c-2.1-4.6-4-9.4-5.7-14.3l0,0
	L79,341.3c19,37.9,49.8,68.8,87.8,87.8L211.1,384.7L211.1,384.7z"/>
<g>
	<path style="fill:#FF7058;" d="M311.2,379.1c-4.6,2.1-9.4,4-14.3,5.7C301.8,383.1,306.6,381.2,311.2,379.1z"/>
	<path style="fill:#FF7058;" d="M325,371.7c-3.8,2.3-7.7,4.4-11.8,6.3C317.3,376.1,321.2,374,325,371.7z"/>
	<path style="fill:#FF7058;" d="M341.3,429l43,43c36-21.6,66.2-51.8,87.8-87.8l-43-43C410.1,379.2,379.2,410.1,341.3,429z"/>
	<path style="fill:#FF7058;" d="M384.7,296.9c-1.6,4.9-3.5,9.7-5.7,14.3C381.2,306.6,383.1,301.8,384.7,296.9z"/>
	<path style="fill:#FF7058;" d="M339.5,361.7c8.2-6.5,15.7-14,22.2-22.2C355.2,347.7,347.7,355.2,339.5,361.7z"/>
	<path style="fill:#FF7058;" d="M338.8,362.3c-3.7,2.9-7.7,5.7-11.7,8.2C331.1,367.9,335,365.2,338.8,362.3z"/>
	<path style="fill:#FF7058;" d="M370.5,327.1c-2.5,4-5.3,8-8.2,11.7C365.2,335,367.9,331.1,370.5,327.1z"/>
	<path style="fill:#FF7058;" d="M378.1,313.3c-1.9,4-4.1,8-6.4,11.8C374,321.2,376.1,317.3,378.1,313.3z"/>
</g>
<path style="fill:#F1543F;" d="M429,341.3L384.7,297l0,0c-1.6,4.9-3.5,9.7-5.7,14.3c-0.3,0.7-0.7,1.3-1,2c-1.9,4-4,8-6.4,11.8
	c-0.4,0.7-0.8,1.4-1.2,2.1c-2.5,4-5.3,8-8.2,11.7c-0.2,0.2-0.4,0.5-0.5,0.7c-6.5,8.2-14,15.7-22.2,22.2c-0.2,0.2-0.5,0.4-0.7,0.5
	c-3.7,2.9-7.7,5.7-11.7,8.2c-0.7,0.4-1.4,0.8-2.1,1.3c-3.8,2.3-7.7,4.4-11.8,6.3c-0.7,0.3-1.3,0.7-2,1c-4.6,2.1-9.4,4-14.3,5.7l0,0
	l44.3,44.3C379.2,410.1,410.1,379.2,429,341.3z"/>
<g>
	<path style="fill:#FF7058;" d="M183,136.3c3.8-2.3,7.7-4.4,11.8-6.3C190.7,131.9,186.8,134,183,136.3z"/>
	<path style="fill:#FF7058;" d="M168.5,146.3c-8.2,6.5-15.7,14-22.2,22.2C152.8,160.3,160.3,152.8,168.5,146.3z"/>
	<path style="fill:#FF7058;" d="M123.3,211.1c1.6-4.9,3.5-9.7,5.7-14.3C126.8,201.4,124.9,206.2,123.3,211.1z"/>
	<path style="fill:#FF7058;" d="M166.7,79l-43-43c-36,21.6-66.2,51.8-87.8,87.8l43,43C97.9,128.8,128.8,97.9,166.7,79z"/>
	<path style="fill:#FF7058;" d="M196.8,128.9c4.6-2.1,9.4-4,14.3-5.7C206.2,124.9,201.4,126.8,196.8,128.9z"/>
	<path style="fill:#FF7058;" d="M129.9,194.7c1.9-4,4.1-8,6.4-11.8C134,186.8,131.9,190.7,129.9,194.7z"/>
	<path style="fill:#FF7058;" d="M169.2,145.7c3.7-2.9,7.7-5.7,11.7-8.2C176.9,140.1,173,142.8,169.2,145.7z"/>
	<path style="fill:#FF7058;" d="M137.5,180.9c2.5-4,5.3-8,8.2-11.7C142.8,173,140.1,176.9,137.5,180.9z"/>
</g>
<path style="fill:#F1543F;" d="M123.3,211.1c1.6-4.9,3.5-9.7,5.7-14.3c0.3-0.7,0.7-1.3,1-2c1.9-4,4-8,6.4-11.8
	c0.4-0.7,0.8-1.4,1.2-2.1c2.5-4,5.3-8,8.2-11.7c0.2-0.2,0.4-0.5,0.5-0.7c6.5-8.2,14-15.7,22.2-22.2c0.2-0.2,0.5-0.4,0.7-0.5
	c3.7-2.9,7.7-5.7,11.7-8.2c0.7-0.4,1.4-0.8,2.1-1.3c3.8-2.3,7.7-4.4,11.8-6.3c0.7-0.3,1.3-0.7,2-1c4.6-2.1,9.4-4,14.3-5.7l0,0
	L166.7,79c-37.9,19-68.8,49.8-87.8,87.8L123.3,211.1L123.3,211.1z"/>
<g>
</g>
<g>
</g>
<g>
</g>
<g>
</g>
<g>
</g>
<g>
</g>
<g>
</g>
<g>
</g>
<g>
</g>
<g>
</g>
<g>
</g>
<g>
</g>
<g>
</g>
<g>
</g>
<g>
</g>
</svg>
