<?xml version="1.0" encoding="UTF-8"?>
<svg width="126px" height="126px" viewBox="0 0 126 126" version="1.1" xmlns="http://www.w3.org/2000/svg" xmlns:xlink="http://www.w3.org/1999/xlink">
    <!-- Generator: Sketch 64 (93537) - https://sketch.com -->
    <title>Group 6</title>
    <desc>Created with Sketch.</desc>
    <defs>
        <polygon id="path-1" points="0.3358 0.18 9.9938 0.18 9.9938 11.6166 0.3358 11.6166"></polygon>
        <polygon id="path-3" points="0.9064 0.176 12.568 0.176 12.568 11.149 0.9064 11.149"></polygon>
        <polygon id="path-5" points="0.3318 0.5632 11.1958 0.5632 11.1958 12 0.3318 12"></polygon>
    </defs>
    <g id="Page-2" stroke="none" stroke-width="1" fill="none" fill-rule="evenodd">
        <g id="Group-6" transform="translate(0.000000, -1.000000)">
            <g id="Group-2-Copy">
                <g id="Group-44">
                    <path d="M18.5479,26.2802 L20.4809,24.1622 C21.2939,23.2702 21.5389,22.4202 20.6499,21.6082 C19.9349,20.9552 19.0909,21.0202 18.1579,22.0432 L16.2259,24.1612 L18.5479,26.2802 Z M13.4279,24.6332 L17.0109,20.7062 C18.7079,18.8452 20.6629,18.6052 22.1239,19.9392 C23.7039,21.3802 23.6139,23.3372 21.9169,25.1962 L19.8469,27.4652 L22.7569,30.1212 L21.2509,31.7712 L13.4279,24.6332 Z" id="Fill-1" fill="#000000"></path>
                    <path d="M27.9658,17.1259 L30.2948,15.5259 C31.4318,14.7459 31.6708,13.9839 31.0988,13.1499 C30.5668,12.3759 29.7518,12.3179 28.6508,13.0749 L26.2958,14.6919 L27.9658,17.1259 Z M28.9288,18.5289 L31.3288,22.0219 L29.5128,23.2699 L23.5148,14.5369 L28.0828,11.3999 C30.0238,10.0659 31.8348,10.2029 32.8768,11.7199 C33.6358,12.8239 33.4958,13.9369 32.7548,14.8519 C33.2828,14.7049 34.4298,14.4669 35.4978,16.0219 L35.7858,16.4409 C36.2128,17.0639 36.6808,17.7619 37.0698,18.0799 L35.1888,19.3709 C34.7838,19.0849 34.3918,18.5259 33.7968,17.6609 L33.5988,17.3729 C32.9038,16.3599 32.2608,16.2399 30.9048,17.1719 L28.9288,18.5289 Z" id="Fill-3" fill="#000000"></path>
                    <path d="M39.4482,11.0497 C40.1762,13.0107 41.8432,14.2367 43.9482,13.4557 C46.0862,12.6617 46.3722,10.5787 45.7082,8.7887 C45.0182,6.9337 43.4032,5.6427 41.2392,6.4457 C39.1822,7.2087 38.7762,9.2387 39.4482,11.0497 M47.8982,7.9447 C48.9272,10.7147 47.9762,13.8447 44.4542,15.1517 C41.1392,16.3807 38.3372,14.8037 37.2592,11.8987 C36.2422,9.1587 37.3892,5.9907 40.7002,4.7627 C44.0732,3.5107 46.8872,5.2207 47.8982,7.9447" id="Fill-5" fill="#000000"></path>
                    <path d="M54.0879,6.5517 L56.9389,6.2277 C58.1379,6.0907 58.8839,5.6127 58.7459,4.4147 C58.6369,3.4527 57.9579,2.9457 56.5829,3.1027 L53.7329,3.4267 L54.0879,6.5517 Z M51.3149,1.9417 L56.5999,1.3397 C59.1019,1.0557 60.7329,2.1597 60.9559,4.1267 C61.1989,6.2527 59.8429,7.6677 57.3409,7.9517 L54.2879,8.2997 L54.7339,12.2157 L52.5119,12.4687 L51.3149,1.9417 Z" id="Fill-7" fill="#000000"></path>
                    <g id="Group-11" transform="translate(64.000000, 0.820000)">
                        <mask id="mask-2" fill="white">
                            <use xlink:href="#path-1"></use>
                        </mask>
                        <g id="Clip-10"></g>
                        <polygon id="Fill-9" fill="#000000" mask="url(#mask-2)" points="9.0498 6.9836 3.0298 6.3516 2.7368 9.1516 9.4108 9.8516 8.9588 11.6166 0.3358 10.7116 1.4408 0.1796 9.9938 1.0786 9.8068 2.8706 3.4658 2.2046 3.2188 4.5596 9.2368 5.1906"></polygon>
                    </g>
                    <path d="M79.8486,8.2616 L82.5126,9.1986 C83.8156,9.6556 84.5696,9.4006 84.9056,8.4456 C85.2176,7.5586 84.7836,6.8666 83.5226,6.4246 L80.8276,5.4776 L79.8486,8.2616 Z M79.2846,9.8676 L77.8796,13.8666 L75.8006,13.1366 L79.3116,3.1416 L84.5386,4.9776 C86.7606,5.7576 87.7196,7.2996 87.1096,9.0366 C86.6656,10.2996 85.6856,10.8446 84.5096,10.7856 C84.9396,11.1256 85.8086,11.9106 85.1846,13.6926 L85.0146,14.1716 C84.7656,14.8836 84.4776,15.6716 84.4506,16.1746 L82.2976,15.4176 C82.2886,14.9226 82.5096,14.2756 82.8566,13.2856 L82.9726,12.9556 C83.3796,11.7956 83.0966,11.2076 81.5456,10.6616 L79.2846,9.8676 Z" id="Fill-12" fill="#000000"></path>
                    <polygon id="Fill-14" fill="#000000" points="94.1455 11.6112 90.9045 9.5712 91.8605 8.0502 100.2205 13.3112 99.2635 14.8332 96.0325 12.7982 91.3465 20.2442 89.4585 19.0572"></polygon>
                    <path d="M101.1748,20.9726 C99.6898,22.4466 99.2628,24.4696 100.8428,26.0636 C102.4488,27.6826 104.4638,27.0816 105.8198,25.7386 C107.2238,24.3436 107.7318,22.3396 106.1088,20.7016 C104.5628,19.1436 102.5458,19.6136 101.1748,20.9726 M107.4928,27.3836 C105.3958,29.4646 102.1538,29.8916 99.5078,27.2246 C97.0188,24.7146 97.2978,21.5106 99.4978,19.3296 C101.5718,17.2726 104.9318,17.0076 107.4158,19.5146 C109.9488,22.0696 109.5568,25.3386 107.4928,27.3836" id="Fill-16" fill="#000000"></path>
                    <g id="Group-20" transform="translate(113.000000, 64.820000)">
                        <mask id="mask-4" fill="white">
                            <use xlink:href="#path-3"></use>
                        </mask>
                        <g id="Clip-19"></g>
                        <polygon id="Fill-18" fill="#000000" mask="url(#mask-4)" points="12.5684 1.403 12.3084 3.614 8.2574 3.141 7.6344 8.465 11.6884 8.938 11.4314 11.149 0.9064 9.922 1.1644 7.711 5.8514 8.257 6.4714 2.933 1.7854 2.386 2.0434 0.176"></polygon>
                    </g>
                    <path d="M117.4502,81.6908 C115.5012,80.9298 113.4782,81.3598 112.6622,83.4508 C111.8322,85.5758 113.1982,87.1728 114.9762,87.8668 C116.8202,88.5868 118.8572,88.2388 119.6972,86.0888 C120.4942,84.0448 119.2482,82.3918 117.4502,81.6908 M114.1502,90.0648 C111.3982,88.9908 109.6932,86.2008 111.0592,82.7018 C112.3452,79.4088 115.3872,78.3648 118.2712,79.4918 C120.9922,80.5538 122.5962,83.5168 121.3122,86.8048 C120.0052,90.1558 116.8572,91.1218 114.1502,90.0648" id="Fill-21" fill="#000000"></path>
                    <path d="M105.3066,100.9594 C106.8006,102.0894 108.3126,103.2454 109.1926,103.9864 L109.2016,103.9754 C108.0506,102.4454 106.0286,99.3284 103.7916,95.9644 L104.9706,94.4074 C108.1956,95.5634 112.2106,96.8424 114.0686,97.5344 L114.0776,97.5214 C113.0506,96.8504 111.3116,95.6384 109.8756,94.5534 L106.6856,92.1394 L107.9026,90.5314 L116.3496,96.9224 L114.4126,99.4804 C111.0316,98.4154 107.6116,97.3864 106.3856,96.8554 L106.3766,96.8664 C107.3356,98.1774 109.1816,101.1214 111.0366,103.9424 L109.0896,106.5184 L100.6426,100.1274 L101.9396,98.4124 L105.3066,100.9594 Z" id="Fill-23" fill="#000000"></path>
                    <polygon id="Fill-25" fill="#000000" points="94.3623 111.1518 99.1283 107.4138 97.3883 105.1978 92.1053 109.3428 91.2013 107.7598 98.0273 102.4058 104.5663 110.7428 97.7973 116.0538 96.6833 114.6348 101.7033 110.6978 100.2403 108.8338 95.4763 112.5708"></polygon>
                    <path d="M79.7324,117.9008 C81.6134,119.9858 82.5314,121.0258 83.0254,121.6788 L83.0404,121.6738 C83.0054,120.8798 83.0314,119.0938 83.1324,116.7108 L79.7324,117.9008 Z M83.1034,114.8048 L83.2294,111.9378 L85.3964,111.1778 L84.7834,122.6208 L82.1234,123.5528 L74.3084,115.0618 L76.5834,114.2658 L78.5274,116.4078 L83.1034,114.8048 Z" id="Fill-27" fill="#000000"></path>
                    <g id="Group-31" transform="translate(62.000000, 114.820000)">
                        <mask id="mask-6" fill="white">
                            <use xlink:href="#path-5"></use>
                        </mask>
                        <g id="Clip-30"></g>
                        <path d="M10.2578,0.5632 L11.1958,11.1172 L8.5668,11.3502 C5.4238,7.4642 3.3048,5.1212 2.5578,3.9782 L2.5278,3.9802 C2.7348,5.1652 2.8858,7.0422 3.0398,8.7712 L3.3108,11.8192 L1.2708,12.0002 L0.3318,1.4462 L2.8028,1.2262 C4.1368,2.8662 8.2378,7.9322 9.0158,9.0862 L9.0448,9.0842 C8.8418,7.7702 8.7088,6.2712 8.5428,4.3992 L8.2178,0.7442 L10.2578,0.5632 Z" id="Fill-29" fill="#000000" mask="url(#mask-6)"></path>
                    </g>
                    <path d="M56.041,115.6186 L55.473,119.4436 C55.453,119.5756 55.482,119.6506 55.545,119.7776 L58.953,126.7616 L56.336,126.3726 C55.498,124.5186 54.359,122.1356 54.006,121.1106 C53.335,121.9766 51.556,123.9326 50.21,125.4606 L47.803,125.1016 L53.164,119.3386 C53.23,119.2626 53.248,119.2086 53.267,119.0796 L53.83,115.2906 L56.041,115.6186 Z" id="Fill-32" fill="#000000"></path>
                    <path d="M45.8281,113.4779 L44.3691,124.4249 L42.2311,123.4779 C42.6271,120.9179 43.2451,116.4729 43.7381,114.7769 L43.7241,114.7709 C42.6921,116.2909 39.7971,119.6649 38.0921,121.6429 L36.1311,120.7739 C36.4481,118.3469 37.1211,113.4729 37.4521,112.0639 L37.4281,112.0529 C36.4001,113.5889 33.5431,116.9919 31.9511,118.9199 L29.9021,118.0119 L37.2211,109.6619 L39.4281,110.6409 C39.1161,113.0839 38.4781,117.6739 38.1891,119.1179 L38.2031,119.1239 C39.1511,117.7319 41.8491,114.5959 43.6421,112.5079 L45.8281,113.4779 Z" id="Fill-34" fill="#000000"></path>
                    <polygon id="Fill-36" fill="#000000" points="25.7441 114.8861 24.0491 113.4461 26.6891 110.3371 22.6061 106.8661 19.9651 109.9751 18.2691 108.5331 25.1311 100.4611 26.8261 101.9021 23.7691 105.4971 27.8531 108.9681 30.9091 105.3731 32.6051 106.8141"></polygon>
                    <polygon id="Fill-38" fill="#000000" points="14.2432 93.8695 17.8032 98.7675 20.0822 97.1115 16.1332 91.6805 17.7482 90.8345 22.8482 97.8505 14.2772 104.0815 9.2192 97.1215 10.6772 96.0605 14.4282 101.2215 16.3452 99.8275 12.7852 94.9305"></polygon>
                    <path d="M9.9824,88.5629 L8.8764,85.9649 C8.3364,84.6959 7.6374,84.3109 6.7074,84.7069 C5.8414,85.0749 5.6254,85.8619 6.1484,87.0889 L7.2654,89.7189 L9.9824,88.5629 Z M11.5464,87.8969 L15.4464,86.2379 L16.3084,88.2649 L6.5624,92.4129 L4.3944,87.3159 C3.4724,85.1489 3.9634,83.4009 5.6564,82.6809 C6.8884,82.1569 7.9524,82.5129 8.7014,83.4199 C8.6624,82.8739 8.6564,81.7029 10.3924,80.9639 L10.8594,80.7649 C11.5534,80.4699 12.3304,80.1509 12.7194,79.8319 L13.6134,81.9309 C13.2524,82.2699 12.6264,82.5449 11.6614,82.9559 L11.3394,83.0919 C10.2094,83.5739 9.9644,84.1789 10.6094,85.6919 L11.5464,87.8969 Z" id="Fill-40" fill="#000000"></path>
                    <polygon id="Fill-42" fill="#000000" points="5.9434 69.4662 6.9864 75.4332 9.7614 74.9482 8.6054 68.3312 10.4274 68.2822 11.9224 76.8292 1.4814 78.6542 0.0004 70.1762 1.7764 69.8652 2.8754 76.1522 5.2094 75.7432 4.1674 69.7772"></polygon>
                </g>
                <g id="Group-5" transform="translate(5.000000, 34.000000)" fill="#000000">
                    <path d="M0.998,26.752 L0,26.691 C0.553,17.594 3.292,8.648 7.922,0.821 L8.783,1.33 C4.233,9.022 1.541,17.813 0.998,26.752" id="Fill-1"></path>
                    <path d="M114.1328,22.2295 C113.0408,14.4935 110.4108,7.1905 106.3178,0.5235 L107.1688,0.0005 C111.3358,6.7855 114.0118,14.2165 115.1228,22.0885 L114.1328,22.2295 Z" id="Fill-3"></path>
                </g>
            </g>
            <g id="Group-Copy" transform="translate(42.000000, 43.000000)" fill="#E2FF00">
                <circle id="Oval" cx="21" cy="21" r="21"></circle>
            </g>
            <path d="M62.037373,57.3717981 C62.3791575,56.9256404 63.0335796,56.8810246 63.4378916,57.2379508 L63.562627,57.3717981 L72.111084,68.5307577 C72.5431486,69.0947648 72.1882824,69.8781768 71.5104114,69.9872152 L71.348457,70 L63.6784078,70 C63.153832,70 62.7285793,69.5878691 62.7285793,69.0794798 C62.7285793,68.6275782 63.0645815,68.2517326 63.507675,68.1737904 L63.6784078,68.1589595 L69.4601978,68.1585462 L62.8,59.4651532 L56.1379025,68.1585462 L57.7407091,68.1589595 C58.2069988,68.1589595 58.5948109,68.4845939 58.6752347,68.9140151 L58.6905377,69.0794798 C58.6905377,69.5313814 58.3545355,69.907227 57.911442,69.9851692 L57.7407091,70 L54.251543,70 C53.5267241,70 53.0892234,69.2568742 53.4029668,68.6644011 L53.488916,68.5307577 L62.037373,57.3717981 Z" id="Path-4-Copy-5" stroke="#000000" stroke-width="1.4" fill="#000000" fill-rule="nonzero"></path>
        </g>
    </g>
</svg>