<?xml version="1.0" encoding="iso-8859-1"?>
<!-- Generator: Adobe Illustrator 19.0.0, SVG Export Plug-In . SVG Version: 6.00 Build 0)  -->
<svg version="1.1" id="Capa_1" xmlns="http://www.w3.org/2000/svg" xmlns:xlink="http://www.w3.org/1999/xlink" x="0px" y="0px"
	 viewBox="0 0 511.998 511.998" style="enable-background:new 0 0 511.998 511.998;" xml:space="preserve">
<g>
	<g>
		<path d="M425.445,385.979l-10.61-32.824V242.023c0-17.18-3.014-33.913-8.947-49.828c14.961-13.262,24.415-32.604,24.415-54.122
			c0-39.887-32.45-72.338-72.338-72.338c-26.413,0-49.554,14.237-62.182,35.432c-7.845-1.317-15.825-1.994-23.801-1.994
			c-78.768,0-142.851,64.083-142.851,142.851v111.132l-10.61,32.824c-10.805,1.379-19.19,10.611-19.19,21.784v3.981
			c0,12.12,9.86,21.982,21.982,21.982H229.5v9.414c0,20.49,16.669,37.16,37.16,37.16h8.258c20.49,0,37.16-16.669,37.16-37.16v-9.414
			h110.574c12.121,0,21.982-9.861,21.982-21.982v-3.981C444.635,396.59,436.25,387.358,425.445,385.979z M296.378,443.14
			c0,11.832-9.626,21.458-21.458,21.458h-8.258c-11.832,0-21.458-9.626-21.458-21.458v-9.414h51.174V443.14z M428.934,411.744
			c0,3.464-2.817,6.281-6.28,6.281H121.316c-3.464,0-6.28-2.817-6.28-6.281v-3.981c0-3.464,2.817-6.281,6.28-6.281h2.985h64.775
			c4.336,0,7.851-3.514,7.851-7.851s-3.515-7.851-7.851-7.851h-53.987l9.421-29.144c0.342-1.059,0.446-2.161,0.327-3.239V242.023
			c0-70.11,57.039-127.149,127.149-127.149c5.717,0,11.437,0.389,17.092,1.15c-2.232,6.956-3.448,14.361-3.448,22.048
			c0,19.217,7.459,37.315,21.004,50.961c3.054,3.075,8.025,3.095,11.102,0.04c3.077-3.054,3.095-8.024,0.041-11.102
			c-10.606-10.683-16.445-24.853-16.445-39.898c0-31.23,25.407-56.636,56.636-56.636s56.636,25.407,56.636,56.636
			s-25.407,56.636-56.636,56.636c-5.636,0-11.212-0.831-16.574-2.47c-4.147-1.263-8.535,1.068-9.803,5.213
			c-1.268,4.146,1.067,8.535,5.213,9.803c6.851,2.094,13.972,3.156,21.164,3.156c12.525,0,24.316-3.204,34.6-8.829
			c4.36,12.983,6.566,26.546,6.566,40.442v111.276c-0.131,1.11-0.027,2.247,0.327,3.339l9.421,29.144H220.478
			c-4.336,0-7.851,3.514-7.851,7.851s3.515,7.851,7.851,7.851h199.19h2.985c3.464,0,6.28,2.817,6.28,6.281V411.744z"/>
	</g>
</g>
<g>
	<g>
		<path d="M461.973,82.051c-8.357-15.745-20.51-29.479-35.143-39.718c-3.553-2.483-8.448-1.621-10.933,1.932
			c-2.486,3.553-1.62,8.447,1.931,10.933c12.608,8.822,23.077,20.652,30.276,34.215c1.41,2.657,4.129,4.171,6.941,4.171
			c1.241,0,2.502-0.295,3.674-0.918C462.549,90.634,464.006,85.882,461.973,82.051z"/>
	</g>
</g>
<g>
	<g>
		<path d="M503.898,67.049c-13.051-27.205-33.542-49.984-59.258-65.875c-3.689-2.281-8.526-1.136-10.806,2.552
			c-2.279,3.688-1.137,8.527,2.552,10.805c23.156,14.309,41.606,34.818,53.356,59.31c1.35,2.814,4.158,4.457,7.084,4.457
			c1.138,0,2.294-0.249,3.39-0.775C504.125,75.648,505.773,70.957,503.898,67.049z"/>
	</g>
</g>
<g>
	<g>
		<path d="M96.739,455.432c-13.562-7.197-25.393-17.666-34.215-30.275c-2.486-3.553-7.381-4.416-10.933-1.932
			c-3.553,2.486-4.417,7.381-1.931,10.933c10.239,14.634,23.973,26.786,39.718,35.142c1.173,0.623,2.433,0.918,3.674,0.918
			c2.812,0,5.531-1.515,6.941-4.172C102.025,462.217,100.568,457.465,96.739,455.432z"/>
	</g>
</g>
<g>
	<g>
		<path d="M81.166,497.07c-24.492-11.751-45.001-30.201-59.31-53.357c-2.279-3.688-7.116-4.832-10.806-2.552
			c-3.689,2.279-4.831,7.117-2.552,10.805c15.891,25.715,38.67,46.208,65.875,59.258c1.095,0.525,2.252,0.775,3.39,0.775
			c2.926,0,5.734-1.642,7.084-4.457C86.725,503.635,85.076,498.944,81.166,497.07z"/>
	</g>
</g>
<g>
	<g>
		<path d="M364.689,99.827c-2.861-1.245-6.192-0.68-8.481,1.443l-16.719,15.524c-3.177,2.95-3.361,7.918-0.411,11.096
			c2.951,3.175,7.917,3.362,11.096,0.41l3.526-3.274v45.29c0,4.337,3.515,7.851,7.851,7.851s7.851-3.514,7.851-7.851v-63.293
			C369.401,103.901,367.55,101.074,364.689,99.827z"/>
	</g>
</g>
<g>
</g>
<g>
</g>
<g>
</g>
<g>
</g>
<g>
</g>
<g>
</g>
<g>
</g>
<g>
</g>
<g>
</g>
<g>
</g>
<g>
</g>
<g>
</g>
<g>
</g>
<g>
</g>
<g>
</g>
</svg>
