<svg xmlns="http://www.w3.org/2000/svg" width="60" height="17" viewBox="0 0 60 17">
    <path fill="#FFF" fill-rule="evenodd" d="M7.576.217c1.934 0 3.718 1.064 3.474 3.713-.296 3.15-1.96 4.892-4.587 4.9H4.168c-.33 0-.49.272-.576.831l-.444 2.86c-.066.432-.285.645-.608.645H.405c-.34 0-.459-.22-.383-.714L1.784.992c.087-.565.296-.775.676-.775h5.116zM4.098 6.353h1.74c1.087-.041 1.809-.805 1.881-2.181.045-.85-.522-1.46-1.423-1.455l-1.637.008-.56 3.628zm12.757 5.936l.006.004c-.76.705-1.435 1.155-2.945 1.155-2.08 0-3.658-1.753-3.495-3.984.212-2.886 2.184-5.136 5.11-5.198 1.259-.03 2.162.351 2.515 1.2.1.24.209.198.249-.04l.077-.458c.049-.291.14-.397.328-.397h2.087c.28 0 .37.182.31.556l-1.169 7.435c-.078.5-.233.63-.553.63h-1.897c-.255 0-.363-.146-.327-.423l.07-.531c.028-.222-.17-.13-.366.05zm-1.59-1.144c1.261 0 2.438-1.019 2.62-2.266.182-1.248-.696-2.266-1.955-2.266-1.26 0-2.437 1.018-2.619 2.266-.182 1.247.696 2.266 1.955 2.266zm9.545-6.598h.001c.369 0 .569.15.648.422l1.37 4.51 3.062-4.5c.201-.294.342-.435.693-.435h2.046c.372 0 .478.344.252.673l-7.346 10.677a.659.659 0 0 1-.642.319h-2.162c-.276 0-.429-.256-.232-.538l2.342-3.373-2.388-7.087c-.126-.369.036-.668.432-.668h1.924zM40.774.22c1.985 0 3.817 1.045 3.566 3.648-.303 3.093-2.012 4.805-4.708 4.812h-2.354c-.339 0-.503.268-.59.818l-.456 2.809c-.069.424-.294.633-.625.633h-2.191c-.35 0-.471-.216-.394-.7L34.834.977c.09-.554.304-.76.694-.76h5.246V.22zm-3.569 6.028h1.785c1.116-.041 1.857-.79 1.932-2.143.045-.835-.537-1.433-1.462-1.429l-1.68.007-.575 3.565zm13.093 5.83l.01.005c-.781.692-1.474 1.134-3.023 1.134-2.135 0-3.754-1.722-3.587-3.914.217-2.834 2.242-5.045 5.244-5.105 1.293-.03 2.219.344 2.582 1.178.103.236.214.195.255-.04l.08-.449c.05-.286.143-.39.336-.39h2.139c.287 0 .38.18.319.546l-1.2 7.304c-.08.492-.24.62-.568.62h-1.947c-.261 0-.372-.144-.336-.417l.072-.521c.028-.218-.175-.127-.376.05zm-1.63-1.123c1.293 0 2.502-1 2.689-2.226.187-1.226-.714-2.226-2.006-2.226-1.293 0-2.502 1-2.689 2.226-.186 1.226.714 2.226 2.007 2.226zm8.981 2.024h-2.248a.27.27 0 0 1-.208-.085.253.253 0 0 1-.066-.21L57.1.552a.385.385 0 0 1 .374-.295h2.247a.27.27 0 0 1 .21.085.253.253 0 0 1 .065.21l-1.974 12.132a.385.385 0 0 1-.374.298v-.003z"/>
</svg>
