<?xml version="1.0" encoding="UTF-8" standalone="no"?>
<!-- Created with Keyshape -->
<svg xmlns="http://www.w3.org/2000/svg" viewBox="0 -14 50 50" text-rendering="geometricPrecision" shape-rendering="geometricPrecision" style="white-space: pre;">
    <style>
@keyframes a0_t { 0% { transform: translate(320.025556px,91.037663px) rotate(-10deg) translate(-211.089778px,-231.066866px); } 7.6923% { transform: translate(320.025556px,91.037663px) rotate(-10deg) translate(-211.089778px,-231.066866px); } 23.0769% { transform: translate(320.025556px,91.037663px) rotate(0deg) translate(-211.089778px,-231.066866px); } 65.3846% { transform: translate(320.025556px,91.037663px) rotate(0deg) translate(-211.089778px,-231.066866px); } 73.0769% { transform: translate(320.025556px,91.037663px) rotate(-10deg) translate(-211.089778px,-231.066866px); } 100% { transform: translate(320.025556px,91.037663px) rotate(-10deg) translate(-211.089778px,-231.066866px); } }
@keyframes a1_o { 0% { opacity: 0; } 23.0769% { opacity: 0; } 26.9231% { opacity: 1; } 38.4615% { opacity: 1; } 46.1538% { opacity: 0; } 100% { opacity: 0; } }
@keyframes a1_d { 0% { d: path('M12.879,-9.285L12.879,-9.285'); } 23.0769% { d: path('M12.879,-9.285L12.879,-9.285'); } 34.6154% { d: path('M18.379,-11.785L84.879,-43.285'); } 46.1538% { d: path('M84.879,-43.285L84.879,-43.285'); } 100% { d: path('M84.879,-43.285L84.879,-43.285'); } }
@keyframes a2_o { 0% { opacity: 0; } 23.0769% { opacity: 0; } 26.9231% { opacity: 1; } 38.4615% { opacity: 1; } 46.1538% { opacity: 0; } 100% { opacity: 0; } }
@keyframes a2_d { 0% { d: path('M12.879,-9.285L12.879,-9.285'); } 23.0769% { d: path('M12.879,-9.285L12.879,-9.285'); } 34.6154% { d: path('M18.379,-11.785L84.879,-43.285'); } 46.1538% { d: path('M84.879,-43.285L84.879,-43.285'); } 100% { d: path('M84.879,-43.285L84.879,-43.285'); } }
@keyframes a3_o { 0% { opacity: 0; } 23.0769% { opacity: 0; } 26.9231% { opacity: 1; } 38.4615% { opacity: 1; } 46.1538% { opacity: 0; } 100% { opacity: 0; } }
@keyframes a3_d { 0% { d: path('M12.879,-9.285L12.879,-9.285'); } 23.0769% { d: path('M12.879,-9.285L12.879,-9.285'); } 34.6154% { d: path('M18.379,-11.785L84.879,-43.285'); } 46.1538% { d: path('M84.879,-43.285L84.879,-43.285'); } 100% { d: path('M84.879,-43.285L84.879,-43.285'); } }
    </style>
    <g transform="translate(15.8792,27.7113) scale(0.0530783,0.0530783) translate(-204.709,-236.319)">
        <g transform="translate(320.026,91.0377) rotate(-10) translate(-211.09,-231.067)" style="animation: 2.6s linear infinite both a0_t;">
            <path d="M136.965,308.234C141.746,305.477,143.383,299.355,140.625,294.574C137.863,289.797,131.746,288.156,126.965,290.914C122.184,293.676,120.543,299.797,123.305,304.574C126.062,309.355,132.184,310.996,136.965,308.234ZM136.965,308.234" fill="#ff4d04" transform="translate(-0.000158422,-22.3555)"/>
            <path d="M95.9844,377.254L146.344,464.484C157.211,483.328,181.656,490.305,200.988,479.129C220.117,468.074,226.691,443.633,215.625,424.488L185.625,372.52L211.605,357.52C216.387,354.754,218.027,348.641,215.266,343.859L202.262,321.336C203.812,321.035,214.008,319.035,393.801,283.766C416.027,282.559,429.344,258.25,418.117,238.816L384.883,181.254L406.121,149.086C408.207,145.922,408.332,141.855,406.437,138.574L386.437,103.934C384.543,100.652,380.945,98.7305,377.176,98.9531L338.703,101.262L301.809,37.3555C296.465,28.0977,286.891,22.4922,276.203,22.3594C276.074,22.3555,275.949,22.3555,275.82,22.3555C265.492,22.3555,256.117,27.4961,250.562,36.1875L119.93,202.602L35.0039,251.633C1.60156,270.91,-9.96875,313.762,9.38281,347.254C27.0625,377.879,64.3359,389.926,95.9844,377.254ZM198.309,434.492C203.832,444.047,200.563,456.273,190.98,461.809C181.367,467.367,169.125,463.953,163.664,454.488L113.664,367.875L148.305,347.875C206.172,448.117,197.379,432.887,198.309,434.492ZM175.625,355.195L165.625,337.875L182.945,327.875L192.945,345.195ZM372.207,119.285L386.027,143.223L373.703,161.887L349.883,120.625ZM267.289,47.1523C269.973,42.7617,274.23,42.3086,275.957,42.3555C277.664,42.375,281.918,42.9063,284.484,47.3516L400.797,248.816C404.586,255.375,399.98,263.621,392.383,263.809C391.02,263.84,390.391,264.086,386.898,264.738L263.863,51.6328C266.445,48.3125,266.777,47.9922,267.289,47.1523ZM250.555,68.5859L366.152,268.809L191.691,303.027L138.645,211.148ZM26.7031,337.254C22.3125,329.656,19.9922,321.031,19.9922,312.305C19.9922,294.469,29.5781,277.859,45.0039,268.953L122.945,223.953L172.945,310.555L95.0039,355.559C71.125,369.34,40.4883,361.129,26.7031,337.254ZM26.7031,337.254" fill="#ff4d04" transform="translate(-0.000158422,-22.3555)"/>
            <path d="M105.984,314.574C103.223,309.793,97.1055,308.152,92.3242,310.914L75.0039,320.914C70.2305,323.672,64.1016,322.027,61.3438,317.254C58.582,312.473,52.4648,310.832,47.6836,313.594C42.9023,316.355,41.2617,322.473,44.0234,327.254C52.2539,341.512,70.6133,346.539,85.0039,338.234L102.324,328.234C107.105,325.473,108.746,319.359,105.984,314.574ZM105.984,314.574" fill="#ff4d04" transform="translate(-0.000158422,-22.3555)"/>
        </g>
        <path d="M12.879,-9.285L12.879,-9.285" stroke="#ff4d04" fill="none" stroke-width="16" stroke-linecap="round" fill-rule="nonzero" stroke-linejoin="round" opacity="0" transform="translate(513.178,-47.9161)" style="animation: 2.6s linear infinite both a1_o, 2.6s linear infinite both a1_d;"/>
        <path d="M12.879,-9.285L12.879,-9.285" stroke="#ff4d04" fill="none" stroke-width="16" stroke-linecap="round" fill-rule="nonzero" stroke-linejoin="round" opacity="0" transform="translate(513.178,-47.9161) rotate(-45)" style="animation: 2.6s linear infinite both a2_o, 2.6s linear infinite both a2_d;"/>
        <path d="M12.879,-9.285L12.879,-9.285" stroke="#ff4d04" fill="none" stroke-width="16" stroke-linecap="round" fill-rule="nonzero" stroke-linejoin="round" opacity="0" transform="translate(513.178,-47.9161) rotate(45)" style="animation: 2.6s linear infinite both a3_o, 2.6s linear infinite both a3_d;"/>
    </g>
</svg>
