<svg xmlns="http://www.w3.org/2000/svg" width="13" height="13" viewBox="0 0 13 13">
    <path fill="#FFF" fill-rule="nonzero" d="M12.447 5.73a.469.469 0 0 0-.534-.402.482.482 0 0 0-.385.563c.475 2.903-1.406 5.656-4.201 6.149-2.795.493-5.446-1.46-5.92-4.363-.475-2.903 1.405-5.656 4.2-6.15 1.72-.302 3.469.321 4.646 1.657l-2.065.714a.489.489 0 0 0-.295.613.463.463 0 0 0 .59.307l2.797-.969a.483.483 0 0 0 .319-.46V.485A.475.475 0 0 0 11.132 0a.475.475 0 0 0-.466.484v1.77c-2.4-2.373-6.199-2.274-8.482.22-2.284 2.494-2.189 6.438.212 8.81 2.401 2.372 6.199 2.273 8.483-.22 1.302-1.423 1.883-3.4 1.568-5.334z"/>
</svg>
