<svg xmlns="http://www.w3.org/2000/svg" width="12" height="13" viewBox="0 0 12 13">
    <path fill="#00CE86" fill-rule="nonzero" d="M11.916 5.73a.469.469 0 0 0-.534-.402.482.482 0 0 0-.385.563c.474 2.903-1.406 5.656-4.201 6.149C4 12.533 1.35 10.58.876 7.677.4 4.774 2.28 2.02 5.075 1.527c1.719-.302 3.469.321 4.646 1.657l-2.065.714a.489.489 0 0 0-.296.613.463.463 0 0 0 .59.307l2.798-.969a.483.483 0 0 0 .318-.46V.485A.475.475 0 0 0 10.601 0a.475.475 0 0 0-.466.484v1.77C7.734-.12 3.936-.02 1.652 2.473c-2.283 2.494-2.188 6.438.213 8.81 2.401 2.372 6.199 2.273 8.483-.22 1.302-1.423 1.883-3.4 1.568-5.334z"/>
</svg>
