<svg xmlns="http://www.w3.org/2000/svg" width="13" height="13" viewBox="0 0 13 13">
    <path fill="#FFF" fill-rule="nonzero" d="M6.5 13a6.5 6.5 0 1 1 0-13 6.5 6.5 0 0 1 0 13zm0-2.241a4.259 4.259 0 0 0 1.996-8.022.45.45 0 0 0-.654.297v.003c-.044.197.05.4.23.493a3.36 3.36 0 0 1-1.408 6.327c-.055.004-.11 0-.164 0a3.357 3.357 0 0 1-1.572-6.326.448.448 0 0 0 .23-.493v-.003a.45.45 0 0 0-.653-.298A4.259 4.259 0 0 0 6.5 10.759zm0-4.707c.248 0 .448-.201.448-.449V1.57a.448.448 0 0 0-.896 0v4.034c0 .248.2.449.448.449z"/>
</svg>
